/* XPM */
static char * lock_xpm[] = {
"50 50 76 1",
" 	c None",
".	c #132738",
"+	c #1A2C3C",
"@	c #364553",
"#	c #475664",
"$	c #4F5E6C",
"%	c #546371",
"&	c #142738",
"*	c #394856",
"=	c #51616F",
"-	c #556573",
";	c #182B3B",
">	c #465563",
",	c #162939",
"'	c #4A5967",
")	c #536270",
"!	c #404F5D",
"~	c #41505E",
"{	c #3C4B59",
"]	c #172A3B",
"^	c #3C4B58",
"/	c #273746",
"(	c #556472",
"_	c #2B3A49",
":	c #465562",
"<	c #32414F",
"[	c #31404F",
"}	c #172A3A",
"|	c #4A5966",
"1	c #495866",
"2	c #2D3C4B",
"3	c #354452",
"4	c #2D3D4B",
"5	c #243444",
"6	c #3A4957",
"7	c #1B2D3D",
"8	c #3B4A58",
"9	c #192B3B",
"0	c #3C4A58",
"a	c #233343",
"b	c #445360",
"c	c #344351",
"d	c #445361",
"e	c #233443",
"f	c #142839",
"g	c #435260",
"h	c #445260",
"i	c #152839",
"j	c #4D5C6A",
"k	c #52616F",
"l	c #455462",
"m	c #455361",
"n	c #526270",
"o	c #42515F",
"p	c #1C2E3E",
"q	c #31404E",
"r	c #1D2E3E",
"s	c #203040",
"t	c #203140",
"u	c #3A4856",
"v	c #253544",
"w	c #263645",
"x	c #4B5A67",
"y	c #4B5A68",
"z	c #485765",
"A	c #495765",
"B	c #2E3D4B",
"C	c #2E3D4C",
"D	c #51606E",
"E	c #4C5B69",
"F	c #3D4B59",
"G	c #2C3C4A",
"H	c #2F3F4D",
"I	c #546472",
"J	c #4C5C69",
"K	c #303F4D",
"..................................................",
"..................................................",
"..................................................",
"..................................................",
"..................................................",
"....................+@#$%%$#@+....................",
"..................&*=--------=*&..................",
".................;>------------#+.................",
"................,'----)#!!#)----',................",
"................~---%{;....]^%---~................",
".............../(--)_........_)--(/...............",
"...............:---<..........[--->...............",
"..............})--|............1--)]..............",
"..............2---3............3---4..............",
"..............3---5............5---3..............",
"..............6---7............+---8..............",
"..............8---+............9---0..............",
"..............8---+............9---0..............",
"..............8---+............9---0..............",
"..............8---+............9---0..............",
".............ab---@cccccccccccc@---de.............",
"...........fg------------------------hi...........",
"...........8--------------------------^...........",
"...........j--------------------------j...........",
"...........k--l55555555555555555555m--n...........",
"...........k--o....................~--n...........",
"...........k--o....................~--n...........",
"...........k--o........pq[r........~--n...........",
"...........k--o.......qn--n[.......~--n...........",
"...........k--o......s)----)t......~--n...........",
"...........k--o......@------@......~--n...........",
"...........k--o......u------6......~--n...........",
"...........k--o......v(----(w......~--n...........",
"...........k--o.......8(--(8.......~--n...........",
"...........k--o........x--y........~--n...........",
"...........k--o........'--y........~--n...........",
"...........k--o........z--A........~--n...........",
"...........k--o........BkkC........~--n...........",
"...........k--o.........ff.........~--n...........",
"...........k--o....................~--n...........",
"...........k--o....................~--n...........",
"...........D--EFFFFFFFFFFFFFFFFFFFFy--=...........",
"...........1--------------------------'...........",
"...........G(------------------------(C...........",
"............HEI--------------------IJK............",
"..................................................",
"..................................................",
"..................................................",
"..................................................",
".................................................."};
